<?xml version="1.0" standalone="no"?>
<!DOCTYPE svg PUBLIC "-//W3C//DTD SVG 20010904//EN"
 "http://www.w3.org/TR/2001/REC-SVG-20010904/DTD/svg10.dtd">
<svg version="1.0" xmlns="http://www.w3.org/2000/svg"
 width="400.000000pt" height="400.000000pt" viewBox="0 0 400.000000 400.000000"
 preserveAspectRatio="xMidYMid meet">
<metadata>
Created by potrace 1.14, written by Peter Selinger 2001-2017
</metadata>
<g transform="translate(0.000000,400.000000) scale(0.100000,-0.100000)"
fill="#000000" stroke="none">
<path d="M1958 3199 c-10 -6 -18 -6 -18 -2 0 4 -4 3 -8 -3 -10 -14 -112 -76
-112 -67 0 3 -8 -1 -17 -9 -28 -24 -143 -88 -143 -80 0 4 -5 -1 -11 -11 -6 -9
-14 -15 -20 -12 -5 4 -9 2 -9 -3 0 -6 -12 -15 -27 -21 -32 -13 -106 -53 -113
-62 -3 -3 -41 -25 -85 -49 -44 -24 -88 -50 -97 -58 -10 -8 -18 -12 -18 -8 0 4
-7 0 -16 -8 -8 -9 -22 -16 -30 -16 -8 0 -14 -4 -14 -9 0 -5 -12 -14 -27 -20
-16 -7 -37 -17 -48 -24 -11 -7 -56 -32 -100 -56 -44 -24 -88 -51 -97 -59 -10
-8 -18 -11 -18 -7 0 4 -8 1 -17 -7 -10 -8 -49 -32 -88 -54 -38 -21 -83 -47
-100 -56 -16 -10 -41 -24 -55 -30 -14 -7 -27 -15 -30 -18 -3 -3 -16 -11 -30
-17 -14 -7 -56 -31 -95 -53 -38 -22 -82 -46 -97 -51 -16 -6 -28 -15 -28 -21 0
-5 -4 -6 -10 -3 -5 3 -10 2 -10 -2 0 -5 -27 -22 -60 -38 -33 -17 -60 -33 -60
-37 0 -5 -10 -8 -22 -8 -12 0 -19 -3 -15 -6 3 -4 -30 -25 -74 -47 l-79 -41 -1
-61 c0 -33 -1 -100 -2 -150 -1 -57 2 -95 10 -102 6 -7 36 -26 67 -42 30 -15
52 -31 49 -35 -3 -3 1 -6 10 -6 9 0 43 -16 76 -35 32 -19 64 -35 69 -35 6 0
17 -6 24 -14 8 -7 41 -28 74 -45 73 -39 94 -52 112 -69 7 -7 18 -10 23 -7 5 4
9 1 9 -4 0 -6 6 -11 14 -11 7 0 29 -11 49 -24 19 -13 38 -22 41 -18 3 3 6 1 6
-5 0 -5 21 -20 48 -33 26 -13 53 -30 60 -37 8 -7 18 -11 23 -8 5 4 9 2 9 -3 0
-5 8 -12 18 -16 9 -3 31 -14 47 -23 17 -10 62 -36 100 -58 39 -21 72 -41 75
-45 3 -3 28 -17 55 -30 28 -14 52 -28 55 -31 3 -4 15 -9 28 -13 12 -4 22 -12
22 -17 0 -5 9 -9 19 -9 10 0 21 -7 25 -15 3 -8 12 -15 20 -15 13 0 84 -36 96
-50 3 -3 31 -18 63 -34 31 -16 57 -33 57 -38 0 -5 4 -7 9 -4 5 3 14 -1 21 -9
7 -8 16 -12 21 -9 5 3 9 2 9 -3 0 -4 15 -14 33 -22 17 -8 34 -17 37 -20 3 -4
16 -12 30 -19 39 -20 66 -37 84 -51 9 -7 16 -10 16 -7 0 4 7 0 16 -8 8 -9 20
-14 25 -11 5 4 9 2 9 -3 0 -5 36 -28 81 -51 66 -35 87 -42 115 -36 19 3 34 10
34 15 0 6 9 10 21 10 11 0 17 5 14 10 -3 6 1 10 10 10 9 0 28 9 42 20 14 11
32 20 39 20 8 0 14 5 14 10 0 6 4 10 10 10 5 0 38 18 72 40 35 22 69 40 76 40
6 0 12 5 12 10 0 6 9 10 19 10 11 0 22 4 26 9 6 11 184 111 196 111 4 0 9 3
11 8 2 4 33 23 70 42 37 19 68 39 68 43 0 5 5 5 10 2 6 -3 10 -1 10 4 0 6 5
11 11 11 6 0 23 9 39 20 15 11 30 17 34 13 3 -3 6 -1 6 5 0 7 7 12 15 12 8 0
15 5 15 11 0 5 4 8 9 5 5 -3 14 1 21 9 7 8 17 15 22 15 5 0 33 16 63 35 30 19
55 31 55 27 0 -4 4 -2 8 3 4 6 24 19 45 30 20 11 37 23 37 27 0 5 6 8 14 8 8
0 44 18 81 41 80 49 126 75 180 103 22 12 42 23 45 26 10 10 217 127 275 155
33 16 63 33 66 38 3 5 9 8 13 8 13 -1 42 13 57 29 16 16 20 66 21 230 0 120 0
119 -27 126 -14 3 -25 9 -25 13 0 4 -16 13 -35 21 -19 8 -35 17 -35 21 0 4
-10 11 -22 15 -13 4 -46 21 -74 39 -28 18 -60 36 -72 39 -12 4 -22 12 -22 17
0 6 -4 8 -9 4 -5 -3 -17 2 -25 11 -9 8 -16 12 -16 7 0 -4 -4 -3 -8 2 -6 9 -25
20 -117 69 -11 6 -22 13 -25 16 -6 6 -84 49 -117 64 -13 6 -23 15 -23 19 0 5
-4 5 -10 2 -5 -3 -10 -1 -10 5 0 6 -4 8 -10 5 -5 -3 -10 -2 -10 3 0 5 -8 12
-17 16 -22 7 -77 39 -98 56 -8 7 -15 9 -15 4 0 -5 -4 -4 -8 1 -7 10 -32 26
-92 57 -19 10 -53 30 -75 43 -22 14 -53 32 -70 40 -63 31 -140 78 -147 88 -4
6 -10 8 -14 5 -3 -4 -12 -2 -20 5 -32 29 -40 33 -52 29 -6 -2 -12 1 -12 6 0 6
-18 18 -40 28 -22 10 -40 22 -40 27 0 4 -4 5 -10 2 -5 -3 -10 -3 -10 2 0 4
-23 19 -50 32 -28 14 -50 29 -50 35 0 5 -3 7 -6 3 -3 -3 -34 11 -67 32 -34 21
-77 44 -94 52 -18 7 -33 17 -33 21 0 5 -7 8 -15 8 -8 0 -15 5 -15 10 0 6 -8
10 -19 10 -10 0 -24 7 -31 15 -7 8 -16 12 -21 9 -5 -3 -9 0 -9 5 0 6 -7 11
-15 11 -8 0 -15 4 -15 9 0 8 -22 18 -60 26 -8 2 -23 -1 -32 -6z m82 -208 c14
-9 48 -28 75 -41 28 -14 52 -27 55 -30 5 -6 170 -101 225 -129 11 -6 43 -24
70 -41 28 -17 62 -35 78 -41 15 -6 27 -15 27 -21 0 -5 5 -6 10 -3 6 3 10 1 10
-4 0 -6 4 -11 10 -11 5 0 43 -20 84 -44 41 -24 77 -42 80 -38 3 3 6 1 6 -5 0
-6 29 -25 65 -43 36 -18 67 -36 70 -40 3 -4 24 -17 47 -29 60 -30 174 -94 197
-110 10 -8 21 -12 22 -10 2 2 18 -6 36 -19 17 -12 36 -22 42 -22 6 0 11 -4 11
-9 0 -5 11 -12 25 -15 14 -4 25 -11 25 -16 0 -6 7 -10 15 -10 9 0 21 -5 28
-10 21 -18 127 -79 127 -73 0 3 8 -1 18 -9 9 -9 34 -23 55 -33 20 -9 37 -22
37 -27 0 -5 5 -6 10 -3 6 3 10 1 10 -5 0 -6 3 -9 8 -7 4 3 23 -11 42 -30 19
-20 30 -33 23 -29 -6 4 -14 -2 -18 -14 -3 -11 -10 -20 -13 -20 -4 0 -31 -15
-60 -34 -28 -19 -52 -32 -52 -28 0 4 -5 0 -10 -8 -5 -8 -13 -15 -17 -16 -16
-2 -49 -18 -88 -45 -22 -15 -65 -40 -95 -55 -30 -16 -57 -32 -60 -35 -3 -4
-32 -21 -65 -38 -33 -18 -81 -45 -107 -61 -25 -16 -48 -26 -51 -24 -2 2 -10
-2 -17 -11 -7 -8 -19 -15 -26 -15 -8 0 -14 -4 -14 -10 0 -5 -11 -12 -25 -16
-14 -3 -25 -10 -25 -14 0 -4 -8 -10 -17 -13 -10 -3 -45 -22 -78 -41 -33 -20
-75 -43 -92 -52 -18 -9 -33 -20 -33 -25 0 -5 -3 -9 -7 -8 -16 2 -53 -14 -53
-22 0 -5 -4 -9 -10 -9 -5 0 -47 -22 -94 -50 -47 -27 -89 -50 -95 -50 -6 0 -11
-4 -11 -10 0 -5 -5 -10 -11 -10 -6 0 -23 -9 -39 -20 -15 -11 -30 -17 -34 -13
-3 3 -6 1 -6 -6 0 -7 -4 -10 -9 -7 -5 4 -11 2 -13 -2 -4 -10 -166 -102 -179
-102 -5 0 -9 -4 -9 -8 0 -8 -84 -52 -96 -51 -4 0 -10 -3 -13 -8 -11 -16 -60
-33 -66 -23 -4 6 -15 10 -26 10 -10 0 -19 5 -19 10 0 6 -4 10 -9 10 -5 0 -38
16 -73 36 -62 36 -154 87 -193 108 -11 6 -23 16 -27 21 -4 6 -8 6 -8 2 0 -5
-7 -1 -16 7 -8 9 -20 14 -25 11 -5 -4 -9 -1 -9 4 0 6 -7 11 -15 11 -8 0 -15 4
-15 8 0 5 -16 14 -35 22 -19 8 -35 17 -35 22 0 4 -7 8 -15 8 -8 0 -15 5 -15
12 0 6 -3 9 -6 5 -3 -3 -43 17 -89 44 -46 27 -88 49 -92 49 -5 0 -19 9 -31 20
-12 12 -22 18 -22 15 0 -4 -12 2 -27 13 -16 11 -48 30 -73 42 -25 12 -48 28
-52 34 -4 6 -8 7 -8 2 0 -5 -9 -1 -20 9 -11 10 -20 15 -20 11 0 -4 -10 2 -22
13 -11 11 -24 18 -28 16 -4 -3 -13 2 -20 10 -7 8 -17 15 -22 15 -6 0 -22 9
-38 20 -15 11 -30 17 -34 13 -3 -3 -6 -2 -6 4 0 6 -13 16 -30 23 -16 7 -30 15
-30 19 0 3 -15 12 -32 20 -18 8 -49 27 -69 43 -20 15 -42 28 -49 28 -6 0 -8 5
-5 10 3 6 -2 10 -12 10 -17 1 -17 2 1 15 12 9 34 13 58 11 21 -2 38 -1 38 3 0
3 15 6 34 6 19 0 32 -3 29 -7 -2 -5 7 -4 20 1 14 6 29 6 38 0 17 -11 32 -12
25 -1 -2 4 243 8 546 7 302 0 555 3 561 7 8 5 12 45 13 113 l1 105 -31 0 c-17
1 -150 2 -296 3 -163 1 -268 6 -272 12 -5 7 -8 7 -8 0 0 -6 -61 -9 -167 -7
-93 1 -174 2 -180 2 -7 0 -21 0 -30 0 -24 0 -70 -1 -115 -4 -21 -1 -38 1 -38
5 0 4 -13 4 -30 -1 -19 -5 -30 -5 -30 1 0 6 -5 7 -12 3 -16 -10 -58 -12 -64
-3 -2 4 -17 5 -32 2 -34 -7 -34 -7 -112 2 -36 4 -71 8 -77 8 -17 1 -16 14 1
20 7 3 19 0 25 -6 7 -7 12 -7 11 -2 -5 22 1 35 15 35 8 0 15 5 15 10 0 6 6 10
14 10 8 0 17 7 20 16 4 9 9 14 12 11 4 -3 22 5 40 20 19 14 34 21 34 17 0 -5
4 -4 8 2 9 13 109 74 122 74 6 0 10 5 10 12 0 6 3 9 6 6 5 -6 105 49 132 72 6
6 12 8 12 5 0 -4 12 2 28 13 15 10 35 22 45 25 9 4 17 11 17 17 0 6 4 9 9 6 5
-4 28 6 51 21 23 16 45 26 47 25 3 -2 9 0 12 5 7 11 113 72 124 72 5 0 14 7
21 17 7 9 18 14 24 10 7 -4 12 -1 12 8 0 9 3 15 8 14 14 -3 62 22 62 32 0 6 4
9 9 6 5 -3 14 1 21 9 7 8 16 12 21 9 5 -3 9 0 9 5 0 6 7 11 15 11 8 0 15 5 15
11 0 5 4 8 9 5 5 -3 14 1 21 9 7 8 16 12 21 9 5 -3 9 -1 9 4 0 6 14 15 30 21
17 5 30 15 30 20 0 6 3 10 8 9 8 -2 74 31 82 41 6 7 51 28 63 29 5 0 15 9 23
19 7 10 14 14 14 9 0 -5 9 -1 20 9 11 10 20 15 20 11 0 -4 6 -2 13 4 6 7 35
24 62 40 52 29 72 29 115 1z"/>
</g>
</svg>
